<svg width="24" height="24" viewBox="0 0 24 24" fill="none" xmlns="http://www.w3.org/2000/svg">
<path d="M12.75 15.9199H13.4C14.05 15.9199 14.59 15.3399 14.59 14.6399C14.59 13.7699 14.28 13.5999 13.77 13.4199L12.76 13.0699V15.9199H12.75Z" fill="#898989"/>
<path d="M11.9699 1.90004C6.44994 1.92004 1.97994 6.41004 1.99994 11.93C2.01994 17.45 6.50994 21.92 12.0299 21.9C17.5499 21.88 22.0199 17.39 21.9999 11.87C21.9799 6.35004 17.4899 1.89004 11.9699 1.90004ZM14.2599 12C15.0399 12.27 16.0899 12.85 16.0899 14.64C16.0899 16.18 14.8799 17.42 13.3999 17.42H12.7499V18C12.7499 18.41 12.4099 18.75 11.9999 18.75C11.5899 18.75 11.2499 18.41 11.2499 18V17.42H10.8899C9.24995 17.42 7.91994 16.04 7.91994 14.34C7.91994 13.93 8.25994 13.59 8.66994 13.59C9.07994 13.59 9.41994 13.93 9.41994 14.34C9.41994 15.21 10.0799 15.92 10.8899 15.92H11.2499V12.54L9.73994 12C8.95994 11.73 7.90994 11.15 7.90994 9.36004C7.90994 7.82004 9.11995 6.58004 10.5999 6.58004H11.2499V6.00004C11.2499 5.59004 11.5899 5.25004 11.9999 5.25004C12.4099 5.25004 12.7499 5.59004 12.7499 6.00004V6.58004L13.1099 6.58004C14.7499 6.58004 16.0799 7.96004 16.0799 9.66004C16.0799 10.07 15.7399 10.41 15.3299 10.41C14.9199 10.41 14.5799 10.07 14.5799 9.66004C14.5799 8.79004 13.9199 8.08004 13.1099 8.08004H12.7499V11.46L14.2599 12Z" fill="#898989"/>
<path d="M9.42004 9.36996C9.42004 10.24 9.73004 10.41 10.24 10.59L11.25 10.94V8.07996H10.6C9.95004 8.07996 9.42004 8.65996 9.42004 9.36996Z" fill="#898989"/>
</svg>
